<svg width="64" height="64" viewBox="0 0 64 64" fill="none" xmlns="http://www.w3.org/2000/svg">
  <rect width="64" height="64" rx="14" fill="#134E4A"/>
  <path d="M16 29.5 32 16l16 13.5V48a4 4 0 0 1-4 4H20a4 4 0 0 1-4-4V29.5Z" fill="#F0FDFA"/>
  <path d="M39.5 27.5c-2-1.7-4.6-2.5-7.5-2.5-4.5 0-7.5 2-7.5 5.3 0 3 2.1 4.4 6.7 5.4 3.1.7 4.1 1.3 4.1 2.5 0 1.3-1.2 2.1-3.3 2.1-2.4 0-4.5-.8-6.5-2.4l-2.4 3.5c2.4 2.2 5.4 3.3 8.9 3.3 4.8 0 7.9-2.2 7.9-5.7 0-3.2-2.3-4.8-7-5.8-2.8-.6-3.8-1.1-3.8-2.2 0-1.1 1.1-1.8 3-1.8 1.9 0 3.6.6 5.2 1.8l2.2-3.5Z" fill="#134E4A"/>
</svg>
